PathFileType	4	(X/Y/Z)	C:/Users/beibeiliu/ov580/test_trc/User3\sequence.10_training_dense_right.trc
DataRate	CameraRate	NumFrames	NumMarkers	Units	OrigDataRate	OrigDataStartFrame	OrigNumFrames
120	120	24	19	mm	120	99	263
Frame#	Time	ThumbCMC			ThumbMCP			ThumbIP			ThumbTip			IndexMCP			IndexPIP			IndexTip			MiddleMCP			MiddlePIP			MiddleTip			RingMCP			RingPIP			RingTip			PinkyMCP			PinkyPIP			PinkyTip			BackHand1			BackHand2			BackHand3	
		X0	Y0	Z0	X1	Y1	Z1	X2	Y2	Z2	X3	Y3	Z3	X4	Y4	Z4	X5	Y5	Z5	X6	Y6	Z6	X7	Y7	Z7	X8	Y8	Z8	X9	Y9	Z9	X10	Y10	Z10	X11	Y11	Z11	X12	Y12	Z12	X13	Y13	Z13	X14	Y14	Z14	X15	Y15	Z15	X16	Y16	Z16	X17	Y17	Z17	X18	Y18	Z18	
98	0.816667	127.962	3.09254	55.2271	116.592	15.2051	35.1973	106.394	31.9774	14.1598	94.2519	47.9304	0.436449	129.12	-8.59061	-22.4875	107.539	-31.9396	-15.7855	117.215	-24.5021	17.3217	138.15	-26.0413	-26.9649	116.448	-47.0664	-11.1204	130.648	-35.7807	20.9977	150.589	-40.9831	-18.7739	129.91	-59.2811	-6.64264	136.009	-50.022	24.3973	162.99	-55.9546	-12.2593	136.846	-63.1135	2.94635	147.935	-55.0574	28.3856	181.814	-17.5457	22.3328	186.238	-22.9719	54.2883	160.015	4.97847	38.6977	
99	0.825	132.517	4.94113	49.8778	122.638	13.1309	27.815	113.042	31.7684	4.47123	102.294	45.9984	-8.83961	130.176	-11.1119	-23.4974	106.852	-30.8276	-16.9652	120.619	-24.8915	15.4598	138.296	-29.0131	-26.7592	117.525	-48.1423	-12.3394	132.653	-34.6497	21.7361	149.134	-46.7883	-17.7578	130.08	-63.226	-0.852162	139.147	-50.3392	27.4925	159.979	-62.1645	-11.0204	138.942	-70.6987	6.64894	146.615	-55.6943	32.1417	184.767	-23.9537	18.8647	189.642	-26.0057	52.9062	163.963	1.58603	37.5322	
100	0.833333	136.72	3.34894	47.1048	126.545	14.926	24.0198	117.385	28.1336	1.13729	112.599	37.729	-19.3881	135.737	-18.48	-25.5476	108.333	-34.6995	-14.9422	120.342	-27.7764	13.5036	142.771	-35.9597	-25.1944	119.163	-52.1024	-9.35956	134.405	-37.0755	21.4692	152.202	-51.4957	-16.0696	127.712	-63.5133	1.30936	140.527	-46.0466	29.8672	161.485	-64.0673	-6.80943	137.354	-69.7841	6.30016	148.661	-58.3593	33.933	185.452	-25.9613	20.4174	190.93	-28.5175	51.8258	169.896	0.143729	35.0254	
101	0.841667	140.403	5.95734	40.7327	133.744	11.3979	16.6623	125.931	26.5239	-9.75793	117.93	33.4619	-23.2374	135.617	-22.2798	-28.3522	110.165	-36.3842	-16.9946	124.386	-26.721	13.8822	143.718	-42.9369	-25.6681	119.157	-53.068	-10.3688	137.376	-35.9734	23.2859	150.574	-54.7961	-14.6432	128.307	-65.0452	4.55568	139.612	-46.4014	30.5372	161.985	-67.1625	-2.5715	137.627	-71.7012	12.0081	148.018	-57.6112	36.9205	188.78	-32.3268	23.6497	189.407	-28.4869	53.9023	173.915	-4.25388	32.6869	
102	0.85	145.447	1.67624	39.801	137.507	11.6258	14.923	131.634	22.0442	-14.6543	125.12	24.2225	-29.856	142.792	-29.3038	-27.3825	114.431	-43.0165	-17.7211	125.308	-30.5068	12.9125	148.771	-48.8401	-24.0968	120.728	-58.9344	-6.96205	140.735	-41.0332	24.642	155.103	-62.6918	-10.5486	129.061	-68.4746	5.78774	140.396	-49.089	31.6638	159.634	-74.5486	-0.756026	138.106	-75.9421	15.0185	149.465	-61.0387	38.2889	191.422	-36.9142	19.4272	193.6	-31.9904	55.7403	177.762	-8.50608	32.1191	
103	0.858333	148.336	3.08359	38.459	142.621	7.54002	12.2612	138.028	13.8915	-15.9489	132.714	19.7309	-39.2104	145.609	-39.1045	-27.807	115.845	-44.6708	-15.3363	128.015	-29.02	11.7289	152.117	-56.9095	-21.8238	121.776	-60.0439	-7.2478	136.639	-41.5256	22.9758	154.208	-68.2081	-10.6591	131.362	-73.0333	6.62186	143.072	-53.2699	31.6397	160.454	-82.3048	1.93992	138.002	-79.2768	15.1354	148.982	-62.0277	39.1043	195.113	-44.5284	22.383	195.275	-34.3482	54.9341	179.818	-8.58398	30.4377	
104	0.866667	153.091	-4.10116	36.8804	146.774	6.22325	6.75071	143.188	6.33741	-21.2675	137.08	8.1052	-40.7723	149.344	-40.2562	-29.5763	117.86	-48.1294	-16.8919	131.175	-36.4262	10.9875	151.722	-59.9388	-24.7777	124.715	-66.9295	-7.8837	138.23	-48.2799	23.7793	157.483	-75.605	-8.81957	130.661	-74.024	8.00805	147.665	-56.3146	31.848	164.934	-86.7593	4.1558	139.405	-83.7462	17.6969	153.053	-61.0416	38.6955	197.828	-48.055	25.9955	196.884	-39.6763	57.0786	183.849	-17.8091	31.3322	
105	0.875	157.426	-6.97025	32.6323	149.629	-0.148454	4.03888	145.113	0.841898	-26.5247	140.54	-1.42563	-47.0855	151.502	-49.7049	-29.9637	122.537	-55.0649	-18.5606	131.129	-41.1808	9.1028	156.002	-68.3768	-22.4713	128.084	-73.2536	-9.92198	139.587	-51.739	23.146	157.531	-80.559	-9.06775	133.027	-78.0615	8.7112	145.849	-59.2187	30.2448	166.285	-92.4494	5.91272	140.83	-84.6921	18.8504	154.054	-67.0326	37.9735	199.475	-54.9636	23.8056	199.452	-41.8565	54.6123	185.898	-20.9841	26.2258	
106	0.883333	157.779	-8.55077	30.503	150.702	-6.24126	3.07779	146.569	-8.57394	-27.7775	140.041	-11.942	-45.4585	155.468	-59.6994	-27.4394	127.215	-66.1889	-18.3753	134.694	-48.2513	11.2614	158.762	-78.2068	-20.0517	129.602	-80.2811	-5.61429	143.885	-56.0745	25.5524	161.661	-87.3342	-7.46182	137.077	-86.3815	8.82993	147.805	-63.7393	29.2475	170.729	-99.6345	10.1206	144.354	-92.6957	23.6905	156.599	-75.2787	41.3794	204.949	-62.8073	25.661	203.665	-49.1036	57.1847	190.108	-26.9628	24.965	
107	0.891667	157.233	-14.898	30.4321	150.546	-18.553	2.15092	144.96	-20.2942	-28.6186	137.243	-21.2184	-48.4108	156.486	-64.895	-28.2807	124.554	-69.7016	-16.5839	136.679	-51.6936	11.6367	158.48	-83.9468	-20.4779	130.822	-85.1289	-4.89811	142.822	-65.7676	25.5557	164.005	-92.9178	-4.34802	139.576	-93.6301	16.3227	150.835	-68.8195	31.2814	169.612	-105.54	11.7044	146.418	-100.008	23.2757	158.301	-75.2862	41.0154	205.014	-66.791	26.5167	204.626	-50.5989	52.5532	190.358	-30.4463	26.3132	
108	0.9	157.521	-21.9004	31.9647	148.221	-21.9067	-0.0571863	139.333	-23.5939	-27.9246	134.231	-31.1409	-47.3673	156.945	-70.9168	-25.5026	124.797	-77.8662	-11.5207	135.307	-56.5795	12.9247	162.505	-85.8636	-17.1063	132.862	-94.8702	-0.643315	143.272	-67.3639	26.307	162.378	-99.6867	-1.4124	140.706	-99.425	19.4974	154.944	-72.695	37.1195	168.565	-109.347	13.5915	148.217	-103.103	25.8771	160.447	-79.832	45.9351	204.889	-69.6205	28.259	204.979	-50.7943	52.0828	191.412	-33.2471	25.4615	
109	0.908333	155.297	-21.7679	31.5247	145.771	-24.8682	5.10324	136.607	-30.8661	-26.7512	130.068	-38.4805	-45.3641	154.237	-72.2377	-23.4393	124.611	-82.8326	-11.6498	133.632	-61.2559	17.2197	158.149	-94.6826	-13.1314	130.269	-94.7229	1.46204	143.314	-72.6236	30.6621	164.053	-104.246	3.85208	141.477	-104.552	21.6192	152.257	-76.8329	39.7894	170.779	-109.809	15.0475	148.272	-104.551	32.1226	161.363	-81.3686	45.4672	203.56	-69.0893	27.6766	206.722	-53.4477	54.2664	187.539	-36.0499	28.253	
110	0.916667	152.3	-23.9481	29.934	139.33	-27.5809	5.46563	128.402	-30.8822	-21.4023	120.765	-39.5785	-43.0234	151.35	-78.041	-18.5681	121.105	-86.4227	-2.79387	128.912	-63.3445	19.6191	155.712	-92.0015	-12.6471	128.191	-98.205	10.1855	143.133	-72.2143	34.0999	163.357	-103.624	5.84595	136.354	-101.468	25.6224	147.541	-78.5663	41.1249	169.534	-112.265	18.4141	147.29	-105.425	32.7823	160.905	-82.8748	51.3953	201.838	-69.4378	29.0074	202.662	-51.6296	56.2104	185.766	-36.0581	25.1242	
111	0.925	148.927	-27.9794	33.189	134.161	-30.2746	9.65104	121.423	-33.0377	-16.7565	112.369	-41.9346	-36.1085	142.819	-80.149	-17.3764	114.589	-87.6678	0.94097	125.566	-64.0826	21.932	150.48	-96.1819	-9.44477	122.61	-100.016	8.79016	140.995	-71.1716	35.3102	157.699	-106.385	7.99776	133.897	-103.605	27.186	147.357	-76.9549	43.837	167.415	-110.591	20.1649	144.814	-107.094	36.6475	157.192	-85.2758	51.7342	195.764	-68.3392	22.5229	202.495	-54.414	53.0508	181.323	-34.3537	27.4552	
112	0.933333	145.821	-27.4169	33.5018	131.108	-33.6916	9.42802	115.601	-35.5721	-13.8744	103.224	-42.1347	-33.804	134.457	-78.2545	-15.6635	109.447	-88.0742	5.34459	120.289	-68.2171	25.1784	138.589	-96.7204	-8.19188	117.972	-102.207	13.158	134.202	-70.6757	36.1799	148.468	-105.865	7.29695	128.147	-103.274	31.7988	145.359	-76.5944	45.8218	160.973	-114.069	22.748	139.887	-108.271	42.4902	155.492	-84.0861	51.8845	194.297	-72.4399	21.814	199.47	-55.0205	49.9016	176.284	-38.6526	25.382	
113	0.941667	143.443	-23.5535	35.8299	124.378	-26.7415	14.2484	109.132	-32.4173	-13.4925	95.5523	-36.9587	-26.8022	128.288	-79.3716	-13.4882	100.902	-83.9091	4.41704	119.571	-65.4757	30.4161	135.697	-97.9947	-3.55743	111.623	-98.2777	21.5094	128.365	-72.4838	39.1819	140.486	-104.706	9.82604	123.79	-104.739	36.1436	140.754	-74.9364	47.2538	150.171	-115.237	24.3511	132.291	-103.64	41.9458	150.064	-84.6632	54.2889	186.621	-74.6561	21.1803	194.754	-55.5129	51.1366	173.516	-38.4252	26.6021	
114	0.95	142.304	-24.3994	36.3421	124.014	-26.2257	18.2324	107.024	-29.8773	-4.06142	91.4865	-33.0107	-23.8932	119.494	-75.3786	-10.946	95.7936	-80.2177	10.89	114.8	-63.4598	32.7647	126.006	-97.3351	-2.10006	103.226	-93.7517	19.4716	124.155	-68.9285	41.0034	132.376	-103.066	10.4863	116.645	-99.62	39.03	135.259	-77.643	50.3585	145.137	-115.697	25.3824	127.005	-103.059	45.4359	146.423	-84.7013	54.823	184.734	-75.0794	24.5294	192.706	-58.3467	44.9333	170.85	-38.2727	27.0257	
115	0.958333	143.548	-20.7375	41.7862	122.302	-20.7601	20.4474	103.977	-21.9799	-1.31994	88.8453	-28.4614	-17.481	117.701	-73.6922	-8.65222	90.8222	-75.5949	13.5466	112.106	-55.3029	32.9327	119.967	-91.3296	-1.98418	99.1466	-90.6198	26.7848	124.23	-63.4909	43.4441	131.65	-102.789	13.8867	110.728	-97.1107	37.1642	133.227	-75.579	50.6216	138.031	-111.249	24.9352	122.315	-99.7331	43.9409	141.368	-81.0188	52.093	179.945	-75.0583	24.5797	191.092	-59.643	47.8988	172.618	-41.5902	24.8153	
116	0.966667	145.494	-23.7461	40.0561	122.636	-19.5807	20.4791	102.433	-17.039	-1.695	88.6487	-19.8618	-13.1835	113.761	-70.2783	-7.83898	87.4762	-69.7904	16.119	113.005	-56.2338	34.6856	114.09	-87.2011	-1.59084	96.9714	-87.1767	27.3893	122.794	-65.7057	45.001	122.858	-99.4901	13.6172	108.552	-95.8062	39.2108	129.928	-74.2929	50.1829	133.712	-108.603	22.9379	118.121	-102.46	43.0447	139.153	-79.5238	50.5927	175.415	-75.6713	19.6678	192.687	-58.6125	47.1035	171.991	-37.4688	25.7213	
117	0.975	146.286	-22.9498	40.0998	124.648	-14.6563	21.7348	105.768	-16.5555	0.0174774	88.0601	-11.5701	-15.8316	107.041	-64.8128	-8.93389	86.2044	-64.8105	14.8283	110.977	-52.39	34.3059	112.155	-83.8898	-1.61933	92.0664	-82.0331	21.5131	121.943	-62.8128	43.6088	121.066	-98.2998	13.4018	106.336	-91.5862	37.9565	130.599	-68.53	48.4434	128.249	-109.214	23.9419	114.874	-99.968	42.8934	138.861	-78.3716	51.4938	173.352	-75.1278	18.4707	190.847	-64.8242	47.4974	169.124	-41.0641	22.0394	
118	0.983333	149.704	-18.4477	38.9572	127.787	-15.3956	16.4145	109.15	-8.97987	-1.76226	93.4837	-6.89945	-18.5346	110.191	-60.8974	-10.0693	85.1982	-60.7921	12.8619	110.378	-47.9073	33.007	112.963	-79.984	-2.66095	90.6456	-77.5794	21.5991	122.496	-63.4538	42.4251	115.457	-96.4628	13.3913	105.22	-87.011	40.6795	128.1	-66.1927	48.057	128.828	-106.363	22.5372	113.643	-95.4705	46.471	134.317	-79.2325	52.6436	174.507	-77.6233	19.5997	189.606	-67.3857	45.8307	171.805	-43.1331	20.1496	
119	0.991667	152.91	-19.3156	35.4029	134.71	-11.6544	13.2213	118.019	-8.22653	-7.13662	102.491	-3.41749	-22.7633	112.364	-57.8446	-12.0165	87.7621	-57.4893	12.2163	111.621	-46.4262	31.261	108.603	-78.4711	-3.93557	90.5359	-71.0664	21.83	121.2	-61.1637	40.1894	115.903	-90.0987	10.7233	102.088	-81.5693	38.8719	124.912	-64.834	46.856	124.81	-106.102	24.1369	109.167	-89.1568	43.5607	133.081	-75.7307	52.5467	171.487	-78.4362	21.8124	187.47	-68.5369	43.1791	171.963	-42.9605	20.9995	
120	1	159.302	-17.1992	32.8537	143.162	-8.84813	6.28124	126.652	-6.36299	-14.3274	114.218	0.0696153	-29.6717	110.265	-58.4012	-12.9757	88.9954	-49.5973	8.34767	112.768	-43.5592	29.215	107.923	-72.7763	-5.76667	90.2489	-66.6858	17.8877	123.973	-55.3206	38.0207	113.809	-87.6944	10.3602	98.0614	-77.9479	34.6661	125.204	-63.1936	47.4822	120.18	-102.035	24.5753	104.751	-86.9813	41.8196	131.845	-72.6411	52.8151	168.315	-80.9245	19.0061	188.436	-69.0763	46.9218	176.399	-46.6354	19.83	
121	1.00833	164.411	-17.9682	29.4068	151.548	-8.24216	8.69842	136.288	-6.00556	-20.5996	126.259	2.41013	-35.8455	116.579	-56.4454	-15.609	92.8196	-43.0488	5.64325	118.706	-39.393	26.1122	112.995	-74.7928	-5.73521	91.1859	-60.4552	14.7736	128.559	-54.4428	34.2848	112.723	-87.4326	10.0643	98.9611	-71.9076	33.9648	126.567	-56.481	43.1249	115.828	-97.1084	23.656	103.29	-79.4803	38.8012	131.348	-69.9556	52.5171	168.519	-83.5999	21.1151	184.696	-74.6646	48.2368	176.318	-52.1648	20.7801	
